<svg xmlns="http://www.w3.org/2000/svg" width="96.025" height="88.688" viewBox="314 8951.312 96.025 88.688"><g data-name="Group 46"><g data-name="Group 35"><path d="M362.278 9040a39.5 39.5 0 0 1-2.26-.064c-12.254-.674-23.444-6.747-30.698-16.665a5.209 5.209 0 0 1 8.409-6.151c5.403 7.388 13.737 11.912 22.863 12.416 15.237.821 28.808-9.826 31.556-24.813a5.208 5.208 0 1 1 10.246 1.879C398.84 9025.99 381.811 9040 362.278 9040Z" fill="#bb914a" fill-rule="evenodd" data-name="Path 48"/><g data-name="Group 34"><path d="m314 9031.242 42.337-16.837-29.581-12.744-12.756 29.58Z" fill="#bb914a" fill-rule="evenodd" data-name="Path 49"/></g></g><g data-name="Group 37"><path d="M326.76 8990.86a5.21 5.21 0 0 1-5.13-6.15c3.691-20.134 21.92-34.477 42.377-33.335 12.255.674 23.443 6.747 30.697 16.665a5.21 5.21 0 0 1-1.128 7.28 5.21 5.21 0 0 1-7.279-1.129c-5.405-7.387-13.739-11.912-22.863-12.416-15.246-.82-28.81 9.826-31.557 24.813a5.211 5.211 0 0 1-5.116 4.271Z" fill="#bb914a" fill-rule="evenodd" data-name="Path 50"/><g data-name="Group 36"><path d="m410.025 8960.07-42.337 16.837 29.581 12.743 12.756-29.58Z" fill="#bb914a" fill-rule="evenodd" data-name="Path 51"/></g></g></g></svg>