<svg xmlns="http://www.w3.org/2000/svg" width="96.678" height="85.511" viewBox="710 8951.312 96.678 85.511"><g data-name="Group 47"><path d="M710 9015.987v20.835h65.43c2.592 0 5.096-.941 7.047-2.648l22.605-19.78a4.674 4.674 0 0 0 1.456-4.65l-.158-.633a4.676 4.676 0 0 0-4.535-3.542 4.672 4.672 0 0 0-2.806.936l-15.567 11.675a15.084 15.084 0 0 1-9.048 3.016H756.88a3.472 3.472 0 0 1-3.472-3.473 3.472 3.472 0 0 1 3.472-3.472h13.89a5.209 5.209 0 1 0 0-10.418h-28.771c-1.638 0-3.258.332-4.761.978l-5.622 2.408a7.017 7.017 0 0 0-4.252 6.45 2.319 2.319 0 0 1-2.318 2.318H710Z" fill="#bb914a" fill-rule="evenodd" data-name="Path 52"/><g data-name="Group 42"><path d="M763.017 8990.565c-2.158 0-4.315-.203-6.471-.61-2.158-.406-4.164-.988-6.021-1.75-1.857-.759-3.457-1.69-4.801-2.785l4.615-7.745c1.026.92 2.335 1.724 3.926 2.413a26.35 26.35 0 0 0 4.96 1.59c1.714.374 3.209.56 4.481.56 1.415 0 2.485-.125 3.21-.372.725-.248 1.088-.708 1.088-1.378 0-.46-.3-.84-.902-1.143-.602-.299-1.52-.59-2.759-.873l-6.63-1.592a25.072 25.072 0 0 1-5.067-1.804c-1.61-.778-2.908-1.804-3.898-3.077-.991-1.273-1.486-2.865-1.486-4.773 0-2.335.629-4.377 1.884-6.127 1.255-1.752 3.077-3.112 5.464-4.086 2.386-.972 5.276-1.458 8.673-1.458 3.253 0 6.179.406 8.778 1.22 2.6.815 4.89 2.016 6.87 3.607l-4.562 7.214a24.733 24.733 0 0 0-5.279-2.785c-1.892-.724-4.003-1.087-6.339-1.087-1.132 0-2.05.08-2.759.24-.706.158-1.218.38-1.536.661-.318.285-.478.62-.478 1.009 0 .495.327.884.981 1.167.655.283 2.007.672 4.058 1.166l4.72 1.061c3.466.778 6.083 1.884 7.852 3.316 1.768 1.431 2.653 3.51 2.653 6.234 0 2.793-.672 5.075-2.015 6.842-1.346 1.768-3.167 3.068-5.465 3.9-2.3.83-4.88 1.245-7.745 1.245Zm-3.236-31.35v-7.903h6.896v7.903h-6.896Zm0 35.595v-7.322h6.896v7.322h-6.896Z" fill="#bb914a" fill-rule="evenodd" data-name="Path 42"/></g></g></svg>