<svg xmlns="http://www.w3.org/2000/svg" width="90.286" height="71.187" viewBox="1107 8959.993 90.286 71.187"><g data-name="Group 44"><path d="M1192.077 9031.18h-79.868a5.208 5.208 0 0 1-5.209-5.21v-60.768a5.208 5.208 0 1 1 10.418 0v55.56h74.66a5.208 5.208 0 1 1 0 10.417Z" fill="#bb914a" fill-rule="evenodd" data-name="Path 43"/><g data-name="Group 29"><path d="M1155.615 9008.608a5.19 5.19 0 0 1-3.682-1.526l-11.944-11.944-8.471 8.471a5.206 5.206 0 0 1-7.365 0 5.206 5.206 0 0 1 0-7.365l12.153-12.153a5.206 5.206 0 0 1 7.366 0l11.943 11.943 15.951-15.95a5.206 5.206 0 0 1 7.366 0 5.206 5.206 0 0 1 0 7.365l-19.634 19.633a5.19 5.19 0 0 1-3.683 1.526Z" fill="#bb914a" fill-rule="evenodd" data-name="Path 44"/><g data-name="Group 28"><path d="m1160.025 8972.141 26.848 26.848-.003-26.841-26.845-.007Z" fill="#bb914a" fill-rule="evenodd" data-name="Path 45"/></g></g></g></svg>