<svg xmlns="http://www.w3.org/2000/svg" width="91.416" height="72.038" viewBox="1505.823 8957.831 91.416 72.038"><g data-name="Icon"><g data-name="Group 31"><g data-name="Group 30"><path d="m1582.57 8964.278-20.23 20.767c-7.83 4.352-13.127 12.705-13.127 22.267a25.36 25.36 0 0 0 5.22 15.439c.38.5.602 1.099.602 1.726v2.575a2.818 2.818 0 0 1-2.818 2.817h-3.493c-.625 0-1.235-.21-1.729-.594l-11.248-8.748a2.816 2.816 0 0 1-1.087-2.223v-23.65c0-.749-.297-1.465-.825-1.993l-26.588-26.587c-3.041-3.042-.887-8.243 3.415-8.243h69.302c3.377 0 5.036 4.104 2.605 6.447Z" fill="#bb914a" fill-rule="evenodd" data-name="Path 46"/></g></g><g data-name="Group 33"><g data-name="Group 32"><path d="M1574.682 8984.754c-8.427 0-15.79 4.628-19.647 11.483a22.44 22.44 0 0 0-2.911 11.075c0 4.03 1.062 7.8 2.91 11.075 3.857 6.854 11.221 11.482 19.648 11.482 12.457 0 22.557-10.1 22.557-22.557 0-12.458-10.1-22.558-22.557-22.558Zm-2.344 18.235c.495.219 1.514.51 3.071.888l3.551.8c2.62.583 4.6 1.412 5.924 2.49 1.338 1.09 2.008 2.648 2.008 4.714 0 2.096-.51 3.828-1.528 5.152-1.005 1.34-2.387 2.329-4.119 2.955-.96.349-1.994.596-3.085.742v3.39h-5.196v-3.318c-.815-.072-1.63-.189-2.445-.334a23.576 23.576 0 0 1-4.54-1.325c-1.397-.582-2.605-1.28-3.624-2.11l3.478-5.836c.771.699 1.761 1.296 2.969 1.82 1.193.524 2.445.916 3.74 1.193 1.296.291 2.416.422 3.377.422 1.076 0 1.877-.087 2.43-.276.538-.19.815-.524.815-1.034 0-.35-.233-.64-.684-.858-.451-.233-1.15-.452-2.081-.67l-4.992-1.193c-1.339-.32-2.62-.786-3.827-1.368-1.223-.582-2.198-1.354-2.94-2.314-.757-.96-1.12-2.169-1.12-3.61 0-1.76.465-3.303 1.411-4.627.946-1.31 2.328-2.343 4.133-3.07 1.135-.481 2.445-.787 3.9-.961v-3.348h5.196v3.333c1.455.131 2.808.393 4.06.786 1.965.611 3.697 1.528 5.196 2.721l-3.45 5.443a18.894 18.894 0 0 0-3.987-2.096c-1.426-.553-3.013-.814-4.774-.814-.858 0-1.557.058-2.08.174-.539.117-.918.291-1.165.495-.233.218-.364.466-.364.771 0 .364.248.655.742.873Z" fill="#bb914a" fill-rule="evenodd" data-name="Path 47"/></g></g></g></svg>